<svg xmlns="http://www.w3.org/2000/svg" width="256" height="256" viewBox="0 0 256 256"><style type="text/css">.st0{fill:#FFFFFF;}</style><path class="st0" d="M246.2 53.62c-8.85 3.85-18.07 6.34-27.68 7.5 10.38-6.53 17.49-15.57 21.34-27.1-9.61 5.76-19.99 9.8-31.14 12.11-9.61-10.76-21.33-16.14-35.17-16.14-13.46 0-24.89 4.9-34.31 14.7-9.43 9.8-14.13 21.43-14.13 34.88 0 3.85.38 7.69 1.15 11.53-19.99-1.15-38.63-6.24-55.93-15.28-17.3-9.03-31.91-21.24-43.82-36.61-4.6 7.69-6.91 15.95-6.91 24.79 0 17.69 7.3 31.34 21.91 40.94-8.07 0-15.57-1.92-22.49-5.76v.58c0 11.92 3.75 22.4 11.24 31.42 7.5 9.03 16.81 14.7 27.96 17.01-4.23 1.15-8.46 1.73-12.68 1.73-3.08 0-6.15-.38-9.23-1.15 3.07 10 8.74 18.16 17.01 24.5 8.26 6.34 17.77 9.71 28.54 10.09-17.68 13.84-37.86 20.76-60.54 20.76-3.85 0-7.69-.19-11.53-.58 22.68 14.99 47.47 22.49 74.38 22.49 21.52 0 41.23-4.22 59.1-12.68 17.87-8.45 32.38-19.51 43.53-33.16 11.15-13.64 19.8-28.73 25.95-45.26 6.15-16.52 9.23-33.05 9.23-49.58v-6.34c9.6-6.94 17.68-15.39 24.22-25.39z"/></svg>